<svg width="120" height="36" viewBox="0 0 120 36" fill="none" xmlns="http://www.w3.org/2000/svg">
<g clip-path="url(#clip0_20_57)">
<path d="M7.4625 25.4044C9.24363 25.4044 11.0248 24.4089 11.9908 22.8533L13.5606 23.88C12.2625 25.9644 9.87759 27.3333 7.43231 27.3333C2.90402 27.24 0.187035 23.4444 0.187035 19.8667C0.187035 15.7911 3.44741 12.4622 7.43231 12.4C10.0587 12.4 12.6248 13.9555 13.7719 16.2578L14.1644 17.0355L3.65873 23.8178C4.56438 24.72 5.80212 25.3733 7.4625 25.4044ZM2.05873 19.8667C2.05873 20.6133 2.23987 21.4222 2.60213 22.2311L11.6587 16.4133C10.6927 15.1378 9.0625 14.3289 7.43231 14.3289C4.47382 14.36 2.05873 16.8489 2.05873 19.8667ZM29.1002 19.8667V27.3333H27.2285V19.8667C27.1983 16.8178 24.7833 14.2978 21.8549 14.2978C19.6814 14.2978 16.5417 16.04 16.4814 19.8978V27.3333H14.6097V19.8667C14.7002 15.1689 18.3833 12.4 21.8549 12.4C25.8097 12.4 29.0399 15.7289 29.1002 19.8667ZM44.5189 19.8667V27.3333H42.6472V19.8667C42.617 16.8178 40.2019 14.2978 37.2736 14.2978C35.1 14.2978 31.9604 16.04 31.9 19.8978V27.3333H30.0283V19.8667C30.1189 15.1689 33.8019 12.4 37.2736 12.4C41.2283 12.4 44.4585 15.7289 44.5189 19.8667ZM52.4506 25.4044C54.2317 25.4044 56.0128 24.4089 56.9789 22.8533L58.5487 23.88C57.2506 25.9644 54.8657 27.3333 52.4204 27.3333C47.8921 27.24 45.1751 23.4444 45.1751 19.8667C45.1751 15.7911 48.4355 12.4622 52.4204 12.4C55.0468 12.4 57.6128 13.9555 58.76 16.2578L59.1525 17.0355L48.6468 23.8178C49.5525 24.72 50.7902 25.3733 52.4506 25.4044ZM47.0468 19.8667C47.0468 20.6133 47.2279 21.4222 47.5902 22.2311L56.6468 16.4133C55.6808 15.1378 54.0506 14.3289 52.4204 14.3289C49.4619 14.36 47.0468 16.8489 47.0468 19.8667ZM61.3566 25C61.5981 25.28 61.7189 25.5911 61.7189 25.9644C61.7189 26.7422 61.1453 27.3333 60.3906 27.3333C60.0585 27.3333 59.7264 27.2089 59.4547 26.9289C59.2132 26.6489 59.0623 26.3378 59.0623 25.9644C59.0623 25.2178 59.666 24.5956 60.3906 24.5956C60.783 24.5956 61.0849 24.72 61.3566 25Z" fill="#333333"/>
<path d="M69.491 25.4045C71.2721 25.4045 73.0532 24.4089 74.0193 22.8533L75.5891 23.88C74.291 25.9645 71.9061 27.3333 69.4608 27.3333C64.9325 27.24 62.2155 23.4756 62.2155 19.8667C62.2155 15.8222 65.4759 12.4622 69.4608 12.4C72.0872 12.4 74.6532 13.9556 75.8004 16.2578L74.14 17.16C73.3249 15.48 71.3929 14.3289 69.4608 14.3289C66.5023 14.36 64.0872 16.8489 64.0872 19.8667C64.0872 22.1378 65.7476 25.3422 69.491 25.4045ZM83.2872 12.4C87.3023 12.4 90.5325 15.7289 90.5325 19.8667C90.5325 24.0045 87.3023 27.3333 83.2872 27.3333C79.2721 27.3333 76.0419 24.0045 76.0419 19.8667C76.0419 15.7289 79.2721 12.4 83.2872 12.4ZM83.2872 25.4045C86.2457 25.4045 88.6608 22.9156 88.6608 19.8667C88.6608 16.8178 86.2457 14.3289 83.2872 14.3289C80.3287 14.3289 77.9136 16.8178 77.9136 19.8667C77.9136 22.9156 80.3287 25.4045 83.2872 25.4045ZM105.421 8.66667L105.391 19.8667C105.391 24.0045 102.161 27.3333 98.1457 27.3333C94.1608 27.3333 90.9004 24.0045 90.9004 19.8667C90.9004 15.7289 94.1608 12.4 98.1457 12.4C100.289 12.4 102.221 13.3645 103.549 14.8889V8.66667H105.421ZM98.1457 25.4045C101.134 25.4045 103.519 22.9467 103.519 19.8667C103.519 16.7867 101.134 14.3289 98.1457 14.3289C95.1872 14.3289 92.7721 16.8178 92.7721 19.8667C92.7721 22.9156 95.1872 25.4045 98.1457 25.4045ZM113.3 25.4045C115.081 25.4045 116.862 24.4089 117.828 22.8533L119.398 23.88C118.1 25.9645 115.715 27.3333 113.269 27.3333C108.741 27.24 106.024 23.4445 106.024 19.8667C106.024 15.7911 109.285 12.4622 113.269 12.4C115.896 12.4 118.462 13.9556 119.609 16.2578L120.002 17.0356L109.496 23.8178C110.402 24.72 111.639 25.3733 113.3 25.4045ZM107.896 19.8667C107.896 20.6133 108.077 21.4222 108.439 22.2311L117.496 16.4133C116.53 15.1378 114.9 14.3289 113.269 14.3289C110.311 14.36 107.896 16.8489 107.896 19.8667Z" fill="#DD73B0"/>
</g>
<defs>
<clipPath id="clip0_20_57">
<rect width="120" height="18.6667" fill="white" transform="translate(0 8.66667)"/>
</clipPath>
</defs>
</svg>
