<svg width="24" height="24" viewBox="0 0 24 24" fill="none" xmlns="http://www.w3.org/2000/svg">
<path d="M8.5 5.5V9.5H4.5V5.5H8.5Z" stroke="#DD73B0" stroke-width="5" stroke-linecap="round" stroke-linejoin="round"/>
<path d="M20 3H15C14.4477 3 14 3.44772 14 4V7C14 7.55228 14.4477 8 15 8H20C20.5523 8 21 7.55228 21 7V4C21 3.44772 20.5523 3 20 3Z" stroke="#DD73B0" stroke-width="2" stroke-linecap="round" stroke-linejoin="round"/>
<path d="M19.5 14.5V18.5H15.5V14.5H19.5Z" stroke="#DD73B0" stroke-width="5" stroke-linecap="round" stroke-linejoin="round"/>
<path d="M9 16H4C3.44772 16 3 16.4477 3 17V20C3 20.5523 3.44772 21 4 21H9C9.55228 21 10 20.5523 10 20V17C10 16.4477 9.55228 16 9 16Z" stroke="#DD73B0" stroke-width="2" stroke-linecap="round" stroke-linejoin="round"/>
</svg>
