<svg width="25" height="25" viewBox="0 0 25 25" fill="none" xmlns="http://www.w3.org/2000/svg">
<path d="M22.3055 10.6547H21.5V10.6132H12.5V14.6132H18.1515C17.327 16.9417 15.1115 18.6132 12.5 18.6132C9.1865 18.6132 6.5 15.9267 6.5 12.6132C6.5 9.29966 9.1865 6.61316 12.5 6.61316C14.0295 6.61316 15.421 7.19016 16.4805 8.13266L19.309 5.30416C17.523 3.63966 15.134 2.61316 12.5 2.61316C6.9775 2.61316 2.5 7.09066 2.5 12.6132C2.5 18.1357 6.9775 22.6132 12.5 22.6132C18.0225 22.6132 22.5 18.1357 22.5 12.6132C22.5 11.9427 22.431 11.2882 22.3055 10.6547Z" fill="#FFC107"/>
<path d="M3.65302 7.95866L6.93851 10.3682C7.82752 8.16716 9.98052 6.61316 12.5 6.61316C14.0295 6.61316 15.421 7.19016 16.4805 8.13266L19.309 5.30416C17.523 3.63966 15.134 2.61316 12.5 2.61316C8.65902 2.61316 5.32802 4.78166 3.65302 7.95866Z" fill="#FF3D00"/>
<path d="M12.5 22.6131C15.083 22.6131 17.43 21.6246 19.2045 20.0171L16.1095 17.3981C15.072 18.1877 13.8038 18.6145 12.5 18.6131C9.899 18.6131 7.6905 16.9546 6.8585 14.6401L3.5975 17.1526C5.2525 20.3911 8.6135 22.6131 12.5 22.6131Z" fill="#4CAF50"/>
<path d="M22.3055 10.6547H21.5V10.6132H12.5V14.6132H18.1515C17.7571 15.7214 17.0467 16.6897 16.108 17.3987L16.1095 17.3977L19.2045 20.0167C18.9855 20.2157 22.5 17.6132 22.5 12.6132C22.5 11.9427 22.431 11.2882 22.3055 10.6547Z" fill="#1976D2"/>
</svg>
