<svg width="299" height="61" viewBox="0 0 299 61" fill="none" xmlns="http://www.w3.org/2000/svg">
<path d="M20.7842 44.34C23.0391 44.34 25.1686 43.7889 27.1729 42.6865C29.2273 41.5841 30.8558 40.0809 32.0583 38.1769L35.9667 40.6572C34.3633 43.2126 32.1836 45.242 29.4277 46.7452C26.6718 48.2484 23.7656 49 20.7091 49C17.9031 48.9499 15.3727 48.3987 13.1178 47.3465C10.9131 46.2441 9.03411 44.8411 7.48079 43.1375C5.92747 41.4338 4.7249 39.5297 3.87308 37.4252C3.07136 35.2706 2.67051 33.116 2.67051 30.9614C2.67051 28.5062 3.14653 26.2012 4.09856 24.0466C5.0506 21.8419 6.32833 19.9379 7.93176 18.3344C9.58529 16.6809 11.5144 15.3781 13.7191 14.4261C15.9238 13.474 18.2538 12.973 20.7091 12.9229C24.0162 12.9229 27.0977 13.7747 29.9538 15.4783C32.8601 17.182 35.0397 19.4368 36.4928 22.2428L37.4699 24.1218L11.314 40.5068C12.4665 41.6092 13.7943 42.5111 15.2975 43.2126C16.8508 43.9141 18.6797 44.2899 20.7842 44.34ZM7.33047 30.9614C7.33047 32.8154 7.78144 34.7195 8.68337 36.6736L31.2316 22.6186C30.029 21.0653 28.4757 19.8376 26.5716 18.9357C24.7177 18.0338 22.7635 17.5828 20.7091 17.5828C18.8551 17.5828 17.1014 17.9586 15.4478 18.7102C13.8444 19.4117 12.4414 20.3638 11.2388 21.5663C10.0363 22.7689 9.08422 24.197 8.38272 25.8505C7.68122 27.4539 7.33047 29.1576 7.33047 30.9614ZM73.9041 49H69.2441V30.9614C69.2441 29.1075 68.8683 27.3788 68.1167 25.7753C67.4152 24.1218 66.4632 22.6937 65.2606 21.4912C64.058 20.2385 62.63 19.2614 60.9764 18.5599C59.373 17.8584 57.6694 17.5077 55.8655 17.5077C54.5126 17.5077 53.0595 17.7832 51.5062 18.3344C49.9529 18.8355 48.4998 19.6623 47.1469 20.8147C45.8441 21.9171 44.7417 23.3201 43.8398 25.0237C42.988 26.6773 42.537 28.6816 42.4869 31.0366V49H37.8269V30.9614C37.877 28.1053 38.4282 25.5749 39.4805 23.3702C40.5828 21.1154 41.9858 19.2364 43.6895 17.7331C45.3931 16.1798 47.2972 15.0023 49.4017 14.2006C51.5563 13.3488 53.7109 12.9229 55.8655 12.9229C58.3208 12.9229 60.6257 13.3989 62.7803 14.3509C64.985 15.3029 66.8891 16.6057 68.4925 18.2593C70.146 19.8627 71.4488 21.7668 72.4009 23.9715C73.3529 26.1261 73.854 28.4561 73.9041 30.9614V49ZM111.54 49H106.88V30.9614C106.88 29.1075 106.504 27.3788 105.753 25.7753C105.051 24.1218 104.099 22.6937 102.897 21.4912C101.694 20.2385 100.266 19.2614 98.6126 18.5599C97.0091 17.8584 95.3055 17.5077 93.5016 17.5077C92.1488 17.5077 90.6956 17.7832 89.1423 18.3344C87.589 18.8355 86.1359 19.6623 84.783 20.8147C83.4802 21.9171 82.3779 23.3201 81.4759 25.0237C80.6241 26.6773 80.1731 28.6816 80.123 31.0366V49H75.4631V30.9614C75.5132 28.1053 76.0644 25.5749 77.1166 23.3702C78.219 21.1154 79.622 19.2364 81.3256 17.7331C83.0293 16.1798 84.9333 15.0023 87.0378 14.2006C89.1924 13.3488 91.347 12.9229 93.5016 12.9229C95.9569 12.9229 98.2618 13.3989 100.416 14.3509C102.621 15.3029 104.525 16.6057 106.129 18.2593C107.782 19.8627 109.085 21.7668 110.037 23.9715C110.989 26.1261 111.49 28.4561 111.54 30.9614V49ZM130.536 44.34C132.791 44.34 134.921 43.7889 136.925 42.6865C138.98 41.5841 140.608 40.0809 141.811 38.1769L145.719 40.6572C144.116 43.2126 141.936 45.242 139.18 46.7452C136.424 48.2484 133.518 49 130.461 49C127.655 48.9499 125.125 48.3987 122.87 47.3465C120.665 46.2441 118.786 44.8411 117.233 43.1375C115.68 41.4338 114.477 39.5297 113.625 37.4252C112.824 35.2706 112.423 33.116 112.423 30.9614C112.423 28.5062 112.899 26.2012 113.851 24.0466C114.803 21.8419 116.081 19.9379 117.684 18.3344C119.338 16.6809 121.267 15.3781 123.471 14.4261C125.676 13.474 128.006 12.973 130.461 12.9229C133.768 12.9229 136.85 13.7747 139.706 15.4783C142.612 17.182 144.792 19.4368 146.245 22.2428L147.222 24.1218L121.066 40.5068C122.219 41.6092 123.547 42.5111 125.05 43.2126C126.603 43.9141 128.432 44.2899 130.536 44.34ZM117.083 30.9614C117.083 32.8154 117.534 34.7195 118.436 36.6736L140.984 22.6186C139.781 21.0653 138.228 19.8376 136.324 18.9357C134.47 18.0338 132.516 17.5828 130.461 17.5828C128.607 17.5828 126.854 17.9586 125.2 18.7102C123.597 19.4117 122.194 20.3638 120.991 21.5663C119.789 22.7689 118.836 24.197 118.135 25.8505C117.433 27.4539 117.083 29.1576 117.083 30.9614ZM196.636 39.9056C197.638 40.9077 198.966 41.9098 200.619 42.912C202.273 43.864 204.252 44.34 206.557 44.34V49C205.004 49 203.55 48.8246 202.198 48.4739C200.895 48.1231 199.692 47.6722 198.59 47.121C197.487 46.5197 196.485 45.8683 195.583 45.1668C194.732 44.4653 193.98 43.7889 193.329 43.1375C191.825 41.6342 190.673 40.0058 189.871 38.252C189.069 36.4983 188.493 34.3437 188.142 31.7882C187.792 29.2327 187.591 26.1511 187.541 22.5434C187.541 18.9357 187.566 14.5263 187.616 9.31514V3.90357L192.276 3.97873L192.201 9.3903V12.9229H206.482V17.5828H192.201C192.201 20.8899 192.251 23.7209 192.351 26.076C192.452 28.431 192.652 30.4854 192.953 32.2392C193.253 33.9428 193.704 35.3959 194.306 36.5985C194.907 37.8011 195.684 38.9034 196.636 39.9056ZM235.227 49V42.912C233.573 44.8161 231.594 46.3193 229.289 47.4216C226.984 48.4739 224.479 49 221.773 49C219.267 49 216.912 48.524 214.708 47.5719C212.553 46.6199 210.649 45.3422 208.995 43.7388C207.392 42.0852 206.114 40.1811 205.162 38.0265C204.21 35.8218 203.734 33.4668 203.734 30.9614C203.734 28.4561 204.21 26.1261 205.162 23.9715C206.114 21.7668 207.392 19.8627 208.995 18.2593C210.649 16.6057 212.553 15.3029 214.708 14.3509C216.912 13.3989 219.267 12.9229 221.773 12.9229C224.278 12.9229 226.608 13.3989 228.763 14.3509C230.967 15.3029 232.872 16.6057 234.475 18.2593C236.128 19.8627 237.431 21.7668 238.383 23.9715C239.335 26.1261 239.811 28.4561 239.811 30.9614L239.887 49H235.227ZM235.151 30.9614C235.151 29.1075 234.801 27.3788 234.099 25.7753C233.398 24.1218 232.446 22.6937 231.243 21.4912C230.04 20.2886 228.612 19.3366 226.959 18.6351C225.355 17.9336 223.627 17.5828 221.773 17.5828C219.919 17.5828 218.165 17.9336 216.512 18.6351C214.908 19.3366 213.505 20.2886 212.303 21.4912C211.1 22.6937 210.148 24.1218 209.446 25.7753C208.745 27.3788 208.394 29.1075 208.394 30.9614C208.394 32.8154 208.745 34.5691 209.446 36.2227C210.148 37.8261 211.1 39.2291 212.303 40.4317C213.505 41.6342 214.908 42.5863 216.512 43.2878C218.165 43.9893 219.919 44.34 221.773 44.34C223.627 44.34 225.355 43.9893 226.959 43.2878C228.612 42.5863 230.04 41.6342 231.243 40.4317C232.446 39.2291 233.398 37.8261 234.099 36.2227C234.801 34.5691 235.151 32.8154 235.151 30.9614ZM252.283 28.5563C253.285 29.2578 254.212 30.0846 255.064 31.0366C255.966 31.9886 256.692 33.0409 257.243 34.1933C257.795 35.2957 258.17 36.4732 258.371 37.7259C258.571 38.9285 258.496 40.131 258.145 41.3336C257.895 42.2355 257.419 43.1375 256.717 44.0394C256.066 44.9413 255.089 45.7681 253.786 46.5197C252.483 47.2212 250.805 47.8225 248.75 48.3236C246.696 48.7745 244.14 49 241.084 49V44.4152C244.692 44.4152 247.598 44.0394 249.802 43.2878C252.007 42.4861 253.31 41.3837 253.711 39.9807C254.062 38.8282 253.836 37.5505 253.034 36.1475C252.283 34.6944 251.18 33.4668 249.727 32.4646C247.472 30.9614 245.744 29.4332 244.541 27.8798C243.339 26.2764 242.462 24.6479 241.911 22.9944C241.359 21.3409 241.034 19.6623 240.933 17.9586C240.883 16.255 240.858 14.5764 240.858 12.9229H245.518C245.518 14.5263 245.543 16.0295 245.593 17.4325C245.644 18.8355 245.869 20.1884 246.27 21.4912C246.721 22.7439 247.397 23.9464 248.299 25.0989C249.251 26.2514 250.579 27.4038 252.283 28.5563ZM284.39 30.7359C287.998 32.3394 290.779 34.6944 292.733 37.8011C294.687 40.8576 295.665 44.5906 295.665 49H291.005C291.005 43.9893 289.401 40.106 286.194 37.3501C283.038 34.5942 278.628 33.1912 272.966 33.1411C271.964 33.1411 270.937 33.1661 269.884 33.2162C269.033 33.2162 268.081 33.2162 267.028 33.2162C266.026 33.2162 265.099 33.2413 264.247 33.2914V49H259.587V3.90357H264.247V28.6314C265.049 28.6314 265.901 28.6314 266.803 28.6314C267.705 28.6314 268.557 28.6314 269.358 28.6314C270.21 28.5813 270.937 28.5563 271.538 28.5563C272.189 28.5563 272.615 28.5563 272.816 28.5563C279.079 28.5563 283.864 26.6773 287.171 22.9192C288.374 21.5162 289.326 19.9379 290.028 18.1841C290.729 16.4304 291.08 14.6766 291.08 12.9229H295.665C295.665 15.2278 295.214 17.5327 294.312 19.8376C293.46 22.1426 292.232 24.197 290.629 26.0008C289.927 26.8025 289.05 27.6293 287.998 28.4811C286.996 29.2828 285.793 30.0344 284.39 30.7359Z" fill="white"/>
<circle cx="166.661" cy="30.4999" r="9.80357" fill="#FFC2EC"/>
<path d="M176.464 30.4999C176.464 27.8999 175.431 25.4063 173.593 23.5678C171.754 21.7292 169.261 20.6964 166.661 20.6964C164.061 20.6963 161.567 21.7292 159.729 23.5677C157.89 25.4063 156.857 27.8999 156.857 30.4999L166.661 30.4999H176.464Z" fill="#A137C6"/>
<path d="M221.508 22.1619C221.793 21.5702 222.635 21.5702 222.921 22.1619L225.284 27.0642C225.361 27.2241 225.49 27.3531 225.65 27.4301L230.552 29.7934C231.144 30.0786 231.144 30.9212 230.552 31.2064L225.65 33.5697C225.49 33.6468 225.361 33.7758 225.284 33.9356L222.921 38.838C222.635 39.4296 221.793 39.4296 221.508 38.838L219.144 33.9356C219.067 33.7758 218.938 33.6468 218.779 33.5697L213.876 31.2064C213.285 30.9212 213.285 30.0786 213.876 29.7934L218.779 27.4301C218.938 27.3531 219.067 27.2241 219.144 27.0642L221.508 22.1619Z" fill="#FFC2EC"/>
</svg>
